<svg xmlns="http://www.w3.org/2000/svg" viewBox="0 0 24 24" aria-hidden="true">
  <path fill="#EA4335" d="M12 10.2v3.9h5.4c-.2 1.3-1.6 3.9-5.4 3.9-3.2 0-5.9-2.7-5.9-6s2.7-6 5.9-6c1.8 0 3 .8 3.7 1.5l2.5-2.4C16.7 3.7 14.5 3 12 3 7 3 3 7 3 12s4 9 9 9c5.2 0 8.6-3.6 8.6-8.8 0-.6-.1-1.1-.2-1.6H12z"/>
  <path fill="#FBBC05" d="M3.9 7.8l3.2 2.3C8 8 9.8 6 12 6c1.8 0 3 .8 3.7 1.5l2.5-2.4C16.7 3.7 14.5 3 12 3c-3.5 0-6.6 2-8.1 4.8z"/>
  <path fill="#34A853" d="M12 21c2.4 0 4.5-.8 6-2.2l-2.8-2.3c-.8.6-1.8 1-3.2 1-3.8 0-5.2-2.6-5.4-3.9l-3.2 2.5C4.9 19 8.1 21 12 21z"/>
  <path fill="#4285F4" d="M20.6 12.2c0-.6-.1-1.1-.2-1.6H12v3.9h5.4c-.3 1.4-1.1 2.4-2.2 3.1l2.8 2.3c1.6-1.5 2.6-3.8 2.6-6.7z"/>
</svg>
